<?xml version="1.0" encoding="UTF-8"?>
<svg width="128pt" height="128pt" version="1.1" viewBox="0 0 128 128" xmlns="http://www.w3.org/2000/svg">
 <g fill="#fff">
  <path d="m64 16c-12.73 0-24.938 5.0586-33.941 14.059-9 9.0039-14.059 21.211-14.059 33.941s5.0586 24.938 14.059 33.941c9.0039 9 21.211 14.059 33.941 14.059s24.938-5.0586 33.941-14.059c9-9.0039 14.059-21.211 14.059-33.941s-5.0586-24.938-14.059-33.941c-9.0039-9-21.211-14.059-33.941-14.059zm0 90.668c-11.316 0-22.168-4.4961-30.168-12.5-8.0039-8-12.5-18.852-12.5-30.168s4.4961-22.168 12.5-30.168c8-8.0039 18.852-12.5 30.168-12.5s22.168 4.4961 30.168 12.5c8.0039 8 12.5 18.852 12.5 30.168s-4.4961 22.168-12.5 30.168c-8 8.0039-18.852 12.5-30.168 12.5z"/>
  <path d="m64 21.332c-11.316 0-22.168 4.4961-30.168 12.5-8.0039 8-12.5 18.852-12.5 30.168s4.4961 22.168 12.5 30.168c8 8.0039 18.852 12.5 30.168 12.5s22.168-4.4961 30.168-12.5c8.0039-8 12.5-18.852 12.5-30.168s-4.4961-22.168-12.5-30.168c-8-8.0039-18.852-12.5-30.168-12.5zm25.602 35.199v0.003906c-1.0078 1.3398-2.5898 2.1328-4.2695 2.1328-1.1523 0-2.2773-0.375-3.1992-1.0664l-12.801-9.6016v42.668c0 2.9453-2.3867 5.332-5.332 5.332s-5.332-2.3867-5.332-5.332v-42.668l-12.801 9.6016c-1.1328 0.84766-2.5547 1.2109-3.9531 1.0117-1.4023-0.19922-2.6641-0.94922-3.5156-2.0781-1.7656-2.3594-1.2891-5.7031 1.0664-7.4688l20.746-15.52h0.003906c0.73828-0.76562 1.6836-1.3008 2.7188-1.5469h2.1328c1.0234 0.21484 1.9648 0.71484 2.7188 1.4414l20.75 15.625c1.1289 0.84766 1.8789 2.1133 2.0781 3.5117 0.19922 1.4023-0.16406 2.8242-1.0117 3.957z"/>
 </g>
</svg>
