<?xml version="1.0" encoding="UTF-8"?>
<svg width="128pt" height="128pt" version="1.1" viewBox="0 0 128 128" xmlns="http://www.w3.org/2000/svg">
 <path d="m34.98 38.203c-2.2266 0-4.0312 1.8047-4.0312 4.0312s1.8047 4.0312 4.0312 4.0312h58.039c2.2266 0 4.0312-1.8047 4.0312-4.0312s-1.8047-4.0312-4.0312-4.0312zm0 21.766c-2.2266 0-4.0312 1.8047-4.0312 4.0312s1.8047 4.0312 4.0312 4.0312h58.039c2.2266 0 4.0312-1.8047 4.0312-4.0312s-1.8047-4.0312-4.0312-4.0312zm0 21.766c-2.2266 0-4.0312 1.8047-4.0312 4.0312s1.8047 4.0312 4.0312 4.0312h58.039c2.2266 0 4.0312-1.8047 4.0312-4.0312s-1.8047-4.0312-4.0312-4.0312z" fill="#fff"/>
</svg>
